<?xml version="1.0" standalone="no"?>
<svg viewBox="0 0 200 200" xmlns="http://www.w3.org/2000/svg">
  <path fill="#8C0E0F" d="M45.6,-61.6C60.6,-51.9,75.2,-40.6,81.3,-25.5C87.4,-10.5,85,8.2,79.7,26.4C74.4,44.6,66.3,62.3,52.5,73.1C38.8,83.9,19.4,87.8,0.7,86.8C-18,85.9,-36,80.1,-51.6,69.9C-67.2,59.7,-80.4,45,-84.7,28.3C-89.1,11.6,-84.7,-7.2,-78.1,-24.8C-71.6,-42.3,-62.9,-58.5,-49.6,-68.7C-36.2,-78.9,-18.1,-83.2,-1.4,-81.2C15.3,-79.3,30.6,-71.3,45.6,-61.6Z" transform="translate(100 100)" />
</svg>
